<?xml version="1.0" encoding="UTF-8"?>
<svg xmlns="http://www.w3.org/2000/svg" width="60" height="60" viewBox="0 0 60 60" fill="none">
  <path d="M30.9375 10.5234C28.2451 10.5234 26.0625 8.34083 26.0625 5.64844C26.0625 2.95605 28.2451 0.773438 30.9375 0.773438C33.6299 0.773438 35.8125 2.95605 35.8125 5.64844C35.8125 8.34083 33.6299 10.5234 30.9375 10.5234Z" fill="#CFA36A"></path>
  <path d="M13.0547 54.4453L19.6172 45.0938L21.0234 34.0547C21.0234 33.9141 21.0469 33.75 21.0703 33.6094C21.0703 33.5625 21.0937 33.4922 21.1172 33.4453L23.8125 18.0703L20.3437 20.5078L18.8203 29.1094C18.5859 30.4453 17.3203 31.3125 15.9844 31.0781C14.6484 30.8438 13.7812 29.5781 14.0156 28.2422L15.7266 18.6563C15.8437 18 16.2187 17.4375 16.7344 17.0859L22.7109 12.9141C24.2344 11.7188 26.2031 11.1094 28.2656 11.4141L32.25 12.1172C34.6875 12.6563 36.5859 14.3672 37.4531 16.5469L39.5625 22.3125L46.9219 25.7344L47.6953 26.1094C48.75 26.7422 49.1719 28.1016 48.6562 29.2266C48.3281 29.9297 47.6953 30.3984 46.9922 30.5625L46.125 30.6094C45.8906 30.5859 45.6328 30.5156 45.3984 30.3984L36.5625 26.2969C35.9531 26.0156 35.5078 25.5234 35.3203 24.9141L33.4219 19.7109L31.2187 32.1328L37.6875 42.4453C37.9453 42.7969 38.1094 43.1953 38.1797 43.6641L40.289 55.6406C40.5937 57.2813 39.4687 58.875 37.8047 59.1797C36.1406 59.4844 34.5703 58.3594 34.2656 56.6953L32.2969 45.4453L27.2578 38.9766L25.4765 46.7578C25.4062 47.1797 25.2422 47.6016 24.9844 47.9766L18 57.9375C17.0156 59.3203 15.1406 59.6484 13.7812 58.6875C12.4219 57.7031 12.0937 55.8281 13.0547 54.4453Z" fill="#CFA36A"></path>
</svg>
