<?xml version="1.0" encoding="UTF-8"?>
<svg xmlns="http://www.w3.org/2000/svg" width="60" height="60" viewBox="0 0 60 60" fill="none">
  <g clip-path="url(#clip0_734_2)">
    <path d="M1.16878 37.8835L19.9893 56.7056C20.7675 57.4822 21.788 57.8713 22.8117 57.8713C23.1482 57.8713 23.4798 57.8123 23.8083 57.7293C23.1418 57.5587 22.5087 57.2271 21.9825 56.7025L3.16197 37.8803C1.6009 36.3224 1.6009 33.7982 3.16197 32.2451L32.1144 3.29594C32.6453 2.76495 33.3135 2.42531 34.0262 2.25788L33.6387 2.18932C32.3519 1.96289 31.0412 2.37428 30.1212 3.29594L1.17037 32.2467C-0.389108 33.803 -0.389107 36.3272 1.16878 37.8835ZM5.42146 37.8835L24.242 56.7056C25.0202 57.4822 26.0407 57.8713 27.0644 57.8713C28.0849 57.8713 29.1038 57.4822 29.8836 56.7056L58.8328 27.7533C59.7544 26.8316 60.1674 25.5193 59.9394 24.2357L57.0947 8.26139C56.8013 6.6174 55.5129 5.329 53.8689 5.0356L37.893 2.19091C36.6062 1.96448 35.2955 2.37588 34.3754 3.29753L5.42465 32.2483C3.86198 33.803 3.86198 36.3272 5.42146 37.8835ZM44.925 11.4696C46.4957 9.87508 49.0629 9.85595 50.6575 11.4266C52.252 12.9972 52.2696 15.5645 50.6989 17.159C49.1283 18.752 46.5626 18.7727 44.9681 17.2005C43.3751 15.6298 43.356 13.0626 44.925 11.4696Z" fill="#CFA36A"></path>
  </g>
  <defs>
    <clipPath id="clip0_734_2">
      <rect width="60" height="60" fill="white" transform="matrix(-1 0 0 1 60 0)"></rect>
    </clipPath>
  </defs>
</svg>
