<svg width="654" height="653" viewBox="0 0 654 653" fill="none" xmlns="http://www.w3.org/2000/svg">
<path fill-rule="evenodd" clip-rule="evenodd" d="M327 67.0172C314.436 40.3475 287.443 26.6914 258.844 18.8833C278.253 -9.58576 315.721 -2.77375 327 18.8833C338.279 -2.77375 375.779 -9.58576 395.156 18.8833C366.557 26.6914 339.564 40.3475 327 67.0172ZM229.763 229.284C173.819 225.171 175.458 194.903 148.433 161.229C139.179 149.725 125.393 137.515 102.064 139.829C58.6837 144.166 34.5192 188.252 36.4151 228.513C38.3431 268.71 70.4768 307.301 111.511 307.301H251.647C268.356 307.301 281.467 308.233 293.581 319.833C289.918 299.172 276.871 280.664 251.1 280.664H118.227C103.253 280.664 64.4678 267.843 63.8572 222.633C63.4074 189.698 79.8919 175.27 97.1477 171.8C153.992 160.329 143.131 233.269 92.5526 208.591C93.2917 251.198 138.472 253.865 165.014 231.662C169.127 268.068 236.544 252.676 260.837 260.388C253.125 236.128 268.517 168.683 232.109 164.57C254.314 138.029 251.646 92.8514 209.037 92.1124C233.716 142.688 160.772 153.517 172.244 96.7072C175.715 79.4523 190.143 62.9685 223.08 63.4184C268.292 64.0289 281.113 102.812 281.113 117.786V250.652C281.113 276.422 299.622 289.468 320.284 293.131C308.716 281.049 307.752 267.907 307.752 251.198V111.038C307.752 70.0055 269.191 37.8734 228.96 35.9454C188.729 34.0175 144.609 58.1809 140.271 101.591C137.925 124.919 150.136 138.736 161.64 147.958C195.38 174.981 225.65 173.342 229.763 229.284ZM67.4883 326.516C40.8174 313.952 27.1606 286.961 19.3842 258.364C-9.08623 277.74 -2.27389 315.238 19.3842 326.516C-2.27389 337.794 -9.08623 375.293 19.3842 394.668C27.1606 366.071 40.8174 339.08 67.4883 326.516ZM229.763 423.716C173.819 427.829 175.458 458.097 148.433 491.771C139.179 503.275 125.393 515.485 102.064 513.171C58.6837 508.834 34.5192 464.748 36.4151 424.487C38.3431 384.29 70.4768 345.699 111.511 345.699H251.647C268.356 345.699 281.467 344.767 293.581 333.167C289.918 353.828 276.871 372.336 251.1 372.336H118.227C103.253 372.336 64.4678 385.157 63.8572 430.367C63.4074 463.302 79.8919 477.73 97.1477 481.2C153.992 492.671 143.131 419.731 92.5526 444.409C93.2917 401.802 138.472 399.135 165.014 421.338C169.127 384.932 236.544 400.324 260.837 392.612C253.125 416.872 268.517 484.317 232.109 488.43C254.314 514.971 251.646 560.149 209.037 560.888C233.716 510.312 160.772 499.451 172.244 556.293C175.715 573.548 190.143 590.031 223.08 589.582C268.292 588.971 281.113 550.188 281.113 535.214V402.348C281.113 376.578 299.622 363.532 320.284 359.869C308.716 371.951 307.752 385.093 307.752 401.802V541.93C307.752 582.962 269.191 615.094 228.96 617.022C188.729 618.95 144.609 594.787 140.271 551.377C137.925 528.049 150.136 514.232 161.64 505.01C195.38 478.051 225.65 479.658 229.763 423.716ZM327 586.015C314.436 612.652 287.443 626.341 258.844 634.117C278.253 662.586 315.721 655.774 327 634.117C338.279 655.774 375.779 662.586 395.156 634.117C366.557 626.341 339.564 612.685 327 586.015ZM424.237 423.716C428.35 479.658 458.62 478.019 492.296 505.042C503.8 514.296 516.01 528.081 513.665 551.409C509.327 594.787 465.239 618.95 424.976 617.055C384.776 615.127 346.184 582.995 346.184 541.962V401.834C346.184 385.125 345.252 371.983 333.652 359.901C354.314 363.564 372.823 376.61 372.823 402.38V535.246C372.823 550.22 385.644 589.003 430.856 589.614C463.793 590.064 478.221 573.58 481.692 556.325C493.163 499.483 420.22 510.344 444.898 560.92C402.289 560.181 399.622 515.003 421.826 488.462C385.419 484.349 400.811 416.936 393.099 392.644C417.36 400.356 484.809 384.932 488.89 421.37C515.432 399.167 560.612 401.834 561.351 444.441C510.773 419.763 499.943 492.703 556.756 481.232C574.012 477.762 590.496 463.302 590.046 430.399C589.436 385.189 550.65 372.369 535.676 372.369H402.803C377.032 372.369 363.986 353.861 360.323 333.2C372.405 344.767 385.548 345.731 402.257 345.731H542.392C583.427 345.731 615.593 384.29 617.489 424.519C619.417 464.748 595.22 508.866 551.839 513.204C528.51 515.549 514.693 503.307 505.47 491.804C478.542 458.129 480.149 427.829 424.237 423.716ZM586.512 326.516C613.183 339.08 626.839 366.071 634.616 394.668C663.086 375.293 656.274 337.794 634.616 326.516C656.274 315.238 663.086 277.74 634.616 258.364C626.839 286.961 613.183 313.952 586.512 326.516ZM424.237 229.284C480.181 225.171 478.542 194.903 505.567 161.229C514.821 149.725 528.607 137.515 551.936 139.829C595.316 144.166 619.481 188.252 617.585 228.513C615.657 268.71 583.523 307.301 542.488 307.301H402.353C385.644 307.301 372.501 308.233 360.419 319.833C364.082 299.172 377.129 280.664 402.9 280.664H535.773C550.747 280.664 589.532 267.843 590.143 222.633C590.593 189.698 574.108 175.27 556.852 171.8C500.008 160.329 510.869 233.269 561.447 208.591C560.708 251.198 515.528 253.865 488.986 231.662C484.873 268.068 417.456 252.676 393.195 260.388C400.907 236.128 385.515 168.683 421.923 164.57C399.719 138.029 402.386 92.8514 444.995 92.1124C420.316 142.688 493.26 153.517 481.788 96.7072C478.318 79.4523 463.89 62.9685 430.952 63.4184C385.74 64.0289 372.919 102.812 372.919 117.786V250.652C372.919 276.422 354.41 289.468 333.748 293.131C345.316 281.049 346.28 267.907 346.28 251.198V111.038C346.28 70.0055 384.841 37.8734 425.072 35.9454C465.303 34.0175 509.423 58.1809 513.761 101.591C516.107 124.919 503.896 138.736 492.392 147.958C458.62 174.981 428.318 173.342 424.237 229.284Z" fill="url(#paint0_linear)"/>
<defs>
<linearGradient id="paint0_linear" x1="588.2" y1="653" x2="94.9593" y2="613.684" gradientUnits="userSpaceOnUse">
<stop stop-color="#CFA36A"/>
<stop offset="1" stop-color="#E5BE8C"/>
</linearGradient>
</defs>
</svg>
