<svg width="337" height="337" viewBox="0 0 337 337" fill="none" xmlns="http://www.w3.org/2000/svg">
<path fill-rule="evenodd" clip-rule="evenodd" d="M168.193 34.6264C161.728 20.9035 147.839 13.8768 133.124 9.85915C143.111 -4.78954 162.39 -1.28444 168.193 9.85915C173.997 -1.28444 193.292 -4.78954 203.263 9.85915C188.547 13.8768 174.658 20.9035 168.193 34.6264ZM118.16 118.121C89.3741 116.004 90.2173 100.43 76.312 83.1026C71.5501 77.1836 64.4568 70.9009 52.4529 72.0913C30.1316 74.3233 17.6977 97.0073 18.6733 117.724C19.6653 138.407 36.1997 158.264 57.314 158.264H129.42C138.018 158.264 144.764 158.743 150.998 164.712C149.113 154.081 142.4 144.558 129.139 144.558H60.7697C53.0647 144.558 33.1077 137.961 32.7936 114.698C32.5621 97.7513 41.0442 90.3278 49.9232 88.5422C79.1724 82.6397 73.5838 120.171 47.5588 107.473C47.939 129.396 71.1863 130.769 84.8437 119.344C86.9601 138.077 121.649 130.157 134.149 134.125C130.181 121.642 138.101 86.9384 119.367 84.8221C130.793 71.1654 129.42 47.9193 107.496 47.539C120.194 73.5628 82.6611 79.1346 88.5639 49.9033C90.3496 41.0248 97.7735 32.5431 114.721 32.7746C137.985 33.0887 144.582 53.0447 144.582 60.7493V129.115C144.582 142.375 154.106 149.088 164.738 150.973C158.785 144.756 158.289 137.994 158.289 129.396V57.2773C158.289 36.164 138.448 19.6305 117.747 18.6385C97.046 17.6464 74.3444 30.0796 72.1122 52.4164C70.9052 64.4198 77.1883 71.5292 83.1076 76.2743C100.469 90.179 116.044 89.3358 118.16 118.121ZM34.662 168.151C20.9385 161.686 13.9114 147.798 9.91008 133.083C-4.73934 143.053 -1.23406 162.348 9.91008 168.151C-1.23406 173.954 -4.73934 193.249 9.91008 203.219C13.9114 188.504 20.9385 174.616 34.662 168.151ZM118.16 218.165C89.3741 220.281 90.2173 235.856 76.312 253.183C71.5501 259.102 64.4568 265.385 52.4529 264.194C30.1316 261.962 17.6977 239.278 18.6733 218.562C19.6653 197.878 36.1997 178.022 57.314 178.022H129.42C138.018 178.022 144.764 177.542 150.998 171.574C149.113 182.205 142.4 191.728 129.139 191.728H60.7697C53.0647 191.728 33.1077 198.325 32.7936 221.587C32.5621 238.534 41.0442 245.958 49.9232 247.743C79.1724 253.646 73.5838 216.115 47.5588 228.813C47.939 206.889 71.1863 205.517 84.8437 216.941C86.9601 198.209 121.649 206.129 134.149 202.161C130.181 214.643 138.101 249.347 119.367 251.463C130.793 265.12 129.42 288.366 107.496 288.747C120.194 262.723 82.6611 257.134 88.5639 286.382C90.3496 295.261 97.7735 303.742 114.721 303.511C137.985 303.197 144.582 283.241 144.582 275.536V207.17C144.582 193.91 154.106 187.198 164.738 185.313C158.785 191.529 158.289 198.292 158.289 206.889V278.992C158.289 300.105 138.448 316.639 117.747 317.631C97.046 318.623 74.3444 306.189 72.1122 283.853C70.9052 271.849 77.1883 264.74 83.1076 259.995C100.469 246.123 116.044 246.95 118.16 218.165ZM168.193 301.676C161.728 315.382 147.839 322.425 133.124 326.426C143.111 341.075 162.39 337.57 168.193 326.426C173.997 337.57 193.292 341.075 203.263 326.426C188.547 322.425 174.658 315.399 168.193 301.676ZM218.226 218.165C220.343 246.95 235.918 246.107 253.246 260.011C259.165 264.773 265.448 271.866 264.241 283.869C262.009 306.189 239.324 318.623 218.606 317.647C197.922 316.655 178.064 300.122 178.064 279.008V206.906C178.064 198.308 177.585 191.546 171.616 185.329C182.247 187.214 191.771 193.927 191.771 207.187V275.553C191.771 283.257 198.368 303.213 221.632 303.528C238.58 303.759 246.004 295.277 247.79 286.399C253.692 257.151 216.159 262.739 228.858 288.763C206.933 288.383 205.561 265.137 216.986 251.48C198.253 249.364 206.173 214.676 202.204 202.177C214.688 206.145 249.393 198.209 251.493 216.958C265.151 205.533 288.398 206.906 288.778 228.829C262.753 216.131 257.181 253.662 286.414 247.76C295.293 245.974 303.775 238.534 303.543 221.604C303.229 198.341 283.272 191.744 275.567 191.744H207.198C193.937 191.744 187.224 182.221 185.339 171.59C191.556 177.542 198.319 178.038 206.917 178.038H279.023C300.137 178.038 316.688 197.878 317.664 218.578C318.656 239.278 306.205 261.979 283.884 264.211C271.88 265.418 264.77 259.118 260.025 253.199C246.169 235.872 246.996 220.281 218.226 218.165ZM301.724 168.151C315.448 174.616 322.475 188.504 326.476 203.219C341.126 193.249 337.621 173.954 326.476 168.151C337.621 162.348 341.126 143.053 326.476 133.083C322.475 147.798 315.448 161.686 301.724 168.151ZM218.226 118.121C247.012 116.004 246.169 100.43 260.074 83.1026C264.836 77.1836 271.93 70.9009 283.934 72.0913C306.255 74.3233 318.689 97.0073 317.713 117.724C316.721 138.407 300.187 158.264 279.072 158.264H206.966C198.368 158.264 191.606 158.743 185.389 164.712C187.274 154.081 193.987 144.558 207.247 144.558H275.617C283.322 144.558 303.279 137.961 303.593 114.698C303.824 97.7513 295.342 90.3278 286.463 88.5422C257.214 82.6397 262.803 120.171 288.828 107.473C288.447 129.396 265.2 130.769 251.543 119.344C249.426 138.077 214.737 130.157 202.254 134.125C206.222 121.642 198.302 86.9384 217.036 84.8221C205.61 71.1654 206.983 47.9193 228.907 47.539C216.209 73.5628 253.742 79.1346 247.839 49.9033C246.053 41.0248 238.63 32.5431 221.682 32.7746C198.418 33.0887 191.821 53.0447 191.821 60.7493V129.115C191.821 142.375 182.297 149.088 171.665 150.973C177.618 144.756 178.114 137.994 178.114 129.396V57.2773C178.114 36.164 197.955 19.6305 218.656 18.6385C239.357 17.6464 262.059 30.0796 264.291 52.4164C265.498 64.4198 259.215 71.5292 253.295 76.2743C235.918 90.179 220.326 89.3358 218.226 118.121Z" fill="url(#paint0_linear)"/>
<defs>
<linearGradient id="paint0_linear" x1="254.193" y1="204.143" x2="159.193" y2="-19.8572" gradientUnits="userSpaceOnUse">
<stop stop-color="#F0D7B7"/>
<stop offset="1" stop-color="#F0D7B7" stop-opacity="0"/>
</linearGradient>
</defs>
</svg>
