<svg width="566" height="566" viewBox="0 0 566 566" fill="none" xmlns="http://www.w3.org/2000/svg">
<path fill-rule="evenodd" clip-rule="evenodd" d="M283 58.0884C272.11 34.972 248.714 23.1353 223.925 16.3674C240.748 -8.30864 273.224 -2.4042 283 16.3674C292.776 -2.4042 325.28 -8.30864 342.075 16.3674C317.286 23.1353 293.89 34.972 283 58.0884ZM198.718 198.736C150.227 195.172 151.648 168.936 128.224 139.748C120.202 129.777 108.254 119.194 88.0327 121.199C50.4318 124.959 29.4868 163.171 31.1301 198.068C32.8012 232.91 60.6537 266.359 96.2213 266.359H217.686C232.169 266.359 243.533 267.167 254.033 277.221C250.858 259.313 239.55 243.27 217.212 243.27H102.042C89.0632 243.27 55.4453 232.158 54.9161 192.971C54.5261 164.424 68.8145 151.919 83.7712 148.911C133.042 138.968 123.628 202.19 79.7883 180.8C80.4289 217.731 119.59 220.043 142.596 200.797C146.161 232.353 204.595 219.012 225.652 225.696C218.967 204.669 232.308 146.209 200.752 142.644C219.998 119.639 217.686 80.4807 180.754 79.8401C202.144 123.678 138.919 133.064 148.862 83.8228C151.871 68.8668 164.376 54.5792 192.925 54.9691C232.114 55.4982 243.227 89.1145 243.227 102.093V217.257C243.227 239.594 259.27 250.902 277.179 254.077C267.152 243.605 266.316 232.214 266.316 217.731V96.2444C266.316 60.6785 232.893 32.8274 198.022 31.1564C163.151 29.4853 124.909 50.4293 121.149 88.0562C119.116 108.276 129.7 120.252 139.671 128.245C168.916 151.668 195.153 150.248 198.718 198.736ZM58.0634 283.014C34.9458 272.124 23.1085 248.729 16.3682 223.942C-8.30905 240.736 -2.40432 273.238 16.3682 283.014C-2.40432 292.79 -8.30905 325.292 16.3682 342.086C23.1085 317.299 34.9458 293.904 58.0634 283.014ZM198.718 367.264C150.227 370.828 151.648 397.064 128.224 426.252C120.202 436.223 108.254 446.806 88.0327 444.801C50.4318 441.041 29.4868 402.829 31.1301 367.932C32.8012 333.09 60.6537 299.641 96.2213 299.641H217.686C232.169 299.641 243.533 298.833 254.033 288.779C250.858 306.687 239.55 322.73 217.212 322.73H102.042C89.0632 322.73 55.4453 333.842 54.9161 373.029C54.5261 401.576 68.8145 414.081 83.7712 417.089C133.042 427.032 123.628 363.81 79.7883 385.2C80.4289 348.269 119.59 345.957 142.596 365.203C146.161 333.647 204.595 346.988 225.652 340.304C218.967 361.331 232.308 419.791 200.752 423.356C219.998 446.361 217.686 485.519 180.754 486.16C202.144 442.322 138.919 432.909 148.862 482.177C151.871 497.133 164.376 511.421 192.925 511.031C232.114 510.502 243.227 476.885 243.227 463.907V348.743C243.227 326.406 259.27 315.098 277.179 311.923C267.152 322.395 266.316 333.787 266.316 348.269V469.728C266.316 505.294 232.893 533.145 198.022 534.816C163.151 536.487 124.909 515.543 121.149 477.916C119.116 457.696 129.7 445.72 139.671 437.727C168.916 414.36 195.153 415.752 198.718 367.264ZM283 507.939C272.11 531.028 248.714 542.893 223.925 549.633C240.748 574.309 273.224 568.404 283 549.633C292.776 568.404 325.28 574.309 342.075 549.633C317.286 542.893 293.89 531.056 283 507.939ZM367.282 367.264C370.847 415.752 397.084 414.332 426.273 437.755C436.244 445.776 446.828 457.724 444.795 477.944C441.035 515.543 402.821 536.487 367.922 534.844C333.079 533.173 299.628 505.321 299.628 469.756V348.297C299.628 333.814 298.82 322.423 288.765 311.951C306.675 315.126 322.718 326.434 322.718 348.77V463.935C322.718 476.913 333.831 510.53 373.019 511.059C401.568 511.449 414.074 497.161 417.082 482.205C427.025 432.936 363.8 442.35 385.191 486.188C348.258 485.547 345.947 446.389 365.193 423.383C333.636 419.819 346.977 361.387 340.293 340.332C361.321 347.016 419.784 333.647 423.321 365.23C446.327 345.985 485.487 348.297 486.128 385.227C442.288 363.838 432.902 427.06 482.145 417.117C497.102 414.109 511.39 401.576 511 373.057C510.471 333.87 476.853 322.757 463.874 322.757H348.704C326.366 322.757 315.058 306.715 311.883 288.807C322.356 298.833 333.747 299.669 348.23 299.669H469.695C505.263 299.669 533.143 333.09 534.786 367.96C536.458 402.829 515.485 441.069 477.884 444.829C457.663 446.862 445.686 436.251 437.693 426.28C414.352 397.092 415.745 370.828 367.282 367.264ZM507.937 283.014C531.054 293.904 542.891 317.299 549.632 342.086C574.309 325.292 568.404 292.79 549.632 283.014C568.404 273.238 574.309 240.736 549.632 223.942C542.891 248.729 531.054 272.124 507.937 283.014ZM367.282 198.736C415.773 195.172 414.352 168.936 437.776 139.748C445.798 129.777 457.746 119.194 477.967 121.199C515.568 124.959 536.513 163.171 534.87 198.068C533.199 232.91 505.346 266.359 469.779 266.359H348.314C333.831 266.359 322.439 267.167 311.967 277.221C315.142 259.313 326.45 243.27 348.788 243.27H463.958C476.937 243.27 510.555 232.158 511.084 192.971C511.474 164.424 497.186 151.919 482.229 148.911C432.958 138.968 442.372 202.19 486.212 180.8C485.571 217.731 446.41 220.043 423.404 200.797C419.839 232.353 361.405 219.012 340.376 225.696C347.061 204.669 333.719 146.209 365.276 142.644C346.03 119.639 348.342 80.4807 385.274 79.8401C363.884 123.678 427.109 133.064 417.165 83.8228C414.157 68.8668 401.652 54.5792 373.103 54.9691C333.914 55.4982 322.801 89.1145 322.801 102.093V217.257C322.801 239.594 306.758 250.902 288.849 254.077C298.876 243.605 299.711 232.214 299.711 217.731V96.2444C299.711 60.6785 333.134 32.8274 368.006 31.1564C402.877 29.4853 441.118 50.4293 444.879 88.0562C446.912 108.276 436.328 120.252 426.357 128.245C397.084 151.668 370.819 150.248 367.282 198.736Z" fill="url(#paint0_linear)"/>
<defs>
<linearGradient id="paint0_linear" x1="248.763" y1="265.231" x2="614.539" y2="566" gradientUnits="userSpaceOnUse">
<stop stop-color="#F4F3F1"/>
<stop offset="1" stop-color="white" stop-opacity="0"/>
</linearGradient>
</defs>
</svg>
