<svg width="125" height="80" viewBox="0 0 125 80" fill="none" xmlns="http://www.w3.org/2000/svg">
<path d="M15.2537 22.4219L8.15897 57.4219H1.57098L7.55085 27.8719H0L1.11489 22.4219H15.2537Z" fill="url(#paint0_linear_818_70)"/>
<path d="M30.6524 57.9219C26.8009 57.9219 23.7603 56.7719 21.5305 54.4719C19.3345 52.1719 18.2365 48.9719 18.2365 44.8719C18.2365 40.7385 18.9967 36.9219 20.517 33.4219C22.0373 29.8885 24.1657 27.0885 26.9023 25.0219C29.6726 22.9552 32.8484 21.9219 36.4295 21.9219C40.281 21.9219 43.3047 23.0719 45.5007 25.3719C47.6967 27.6719 48.7947 30.8719 48.7947 34.9719C48.7947 39.1052 48.0345 42.9385 46.5142 46.4719C44.9939 49.9719 42.8486 52.7552 40.0783 54.8219C37.3417 56.8885 34.1997 57.9219 30.6524 57.9219ZM31.2098 52.2719C33.4396 52.2719 35.3822 51.3885 37.0377 49.6219C38.6931 47.8552 39.96 45.6385 40.8384 42.9719C41.7168 40.3052 42.156 37.6885 42.156 35.1219C42.156 32.6552 41.5986 30.7885 40.4837 29.5219C39.4026 28.2219 37.8654 27.5719 35.8721 27.5719C33.6423 27.5719 31.6828 28.4552 29.9936 30.2219C28.3043 31.9885 27.0205 34.2052 26.1421 36.8719C25.2637 39.5385 24.8245 42.1552 24.8245 44.7219C24.8245 47.2219 25.382 49.1052 26.4969 50.3719C27.6118 51.6385 29.1827 52.2719 31.2098 52.2719Z" fill="url(#paint1_linear_818_70)"/>
<path d="M64.7009 57.9219C60.8494 57.9219 57.8088 56.7719 55.579 54.4719C53.383 52.1719 52.285 48.9719 52.285 44.8719C52.285 40.7385 53.0452 36.9219 54.5655 33.4219C56.0858 29.8885 58.2142 27.0885 60.9508 25.0219C63.7211 22.9552 66.8969 21.9219 70.478 21.9219C74.3295 21.9219 77.3532 23.0719 79.5492 25.3719C81.7452 27.6719 82.8432 30.8719 82.8432 34.9719C82.8432 39.1052 82.083 42.9385 80.5627 46.4719C79.0424 49.9719 76.8971 52.7552 74.1268 54.8219C71.3902 56.8885 68.2483 57.9219 64.7009 57.9219ZM65.2583 52.2719C67.4881 52.2719 69.4307 51.3885 71.0862 49.6219C72.7416 47.8552 74.0085 45.6385 74.8869 42.9719C75.7653 40.3052 76.2045 37.6885 76.2045 35.1219C76.2045 32.6552 75.6471 30.7885 74.5322 29.5219C73.4511 28.2219 71.9139 27.5719 69.9206 27.5719C67.6908 27.5719 65.7313 28.4552 64.0421 30.2219C62.3528 31.9885 61.069 34.2052 60.1906 36.8719C59.3122 39.5385 58.873 42.1552 58.873 44.7219C58.873 47.2219 59.4305 49.1052 60.5454 50.3719C61.6603 51.6385 63.2312 52.2719 65.2583 52.2719Z" fill="url(#paint2_linear_818_70)"/>
<path d="M95.1513 41.2719C92.8878 41.2719 91.0803 40.5885 89.7289 39.2219C88.4113 37.8219 87.7525 35.9052 87.7525 33.4719C87.7525 31.3719 88.1579 29.4552 88.9688 27.7219C89.7796 25.9885 90.9283 24.6219 92.4148 23.6219C93.9351 22.5885 95.6919 22.0719 97.6852 22.0719C99.9487 22.0719 101.739 22.7719 103.057 24.1719C104.408 25.5385 105.084 27.4385 105.084 29.8719C105.084 31.9719 104.679 33.8885 103.868 35.6219C103.091 37.3552 101.942 38.7385 100.422 39.7719C98.9352 40.7719 97.1784 41.2719 95.1513 41.2719ZM119.274 22.4219H124.443L93.479 57.4219H88.2593L119.274 22.4219ZM95.5061 37.7719C96.6547 37.7719 97.6345 37.3885 98.4453 36.6219C99.2899 35.8552 99.915 34.8885 100.32 33.7219C100.726 32.5552 100.928 31.3552 100.928 30.1219C100.928 28.6552 100.608 27.5385 99.9656 26.7719C99.3237 25.9719 98.4453 25.5719 97.3304 25.5719C96.1818 25.5719 95.1851 25.9552 94.3405 26.7219C93.5297 27.4885 92.9215 28.4552 92.5161 29.6219C92.1107 30.7885 91.908 31.9885 91.908 33.2219C91.908 34.6885 92.229 35.8219 92.8709 36.6219C93.5128 37.3885 94.3912 37.7719 95.5061 37.7719ZM115.067 57.7719C112.804 57.7719 110.996 57.0885 109.645 55.7219C108.327 54.3552 107.669 52.4552 107.669 50.0219C107.669 47.9219 108.074 46.0052 108.885 44.2719C109.696 42.5385 110.844 41.1719 112.331 40.1719C113.851 39.1385 115.608 38.6219 117.601 38.6219C119.865 38.6219 121.655 39.3219 122.973 40.7219C124.324 42.0885 125 43.9885 125 46.4219C125 48.5219 124.595 50.4385 123.784 52.1719C123.007 53.8719 121.858 55.2385 120.338 56.2719C118.851 57.2719 117.094 57.7719 115.067 57.7719ZM115.422 54.3219C116.571 54.3219 117.55 53.9385 118.361 53.1719C119.206 52.4052 119.831 51.4385 120.236 50.2719C120.642 49.1052 120.844 47.9052 120.844 46.6719C120.844 45.2052 120.524 44.0885 119.882 43.3219C119.24 42.5219 118.361 42.1219 117.246 42.1219C116.098 42.1219 115.101 42.5052 114.257 43.2719C113.446 44.0385 112.838 45.0052 112.432 46.1719C112.027 47.3385 111.824 48.5385 111.824 49.7719C111.824 51.2385 112.145 52.3719 112.787 53.1719C113.429 53.9385 114.307 54.3219 115.422 54.3219Z" fill="url(#paint3_linear_818_70)"/>
<defs>
<linearGradient id="paint0_linear_818_70" x1="-2.26293" y1="37.5445" x2="104.957" y2="37.5445" gradientUnits="userSpaceOnUse">
<stop stop-color="#CFA36A"/>
<stop offset="0.0001" stop-color="#CFA36A"/>
<stop offset="1" stop-color="#E5BE8C"/>
</linearGradient>
<linearGradient id="paint1_linear_818_70" x1="-2.26293" y1="37.5445" x2="104.957" y2="37.5445" gradientUnits="userSpaceOnUse">
<stop stop-color="#CFA36A"/>
<stop offset="0.0001" stop-color="#CFA36A"/>
<stop offset="1" stop-color="#E5BE8C"/>
</linearGradient>
<linearGradient id="paint2_linear_818_70" x1="-2.26293" y1="37.5445" x2="104.957" y2="37.5445" gradientUnits="userSpaceOnUse">
<stop stop-color="#CFA36A"/>
<stop offset="0.0001" stop-color="#CFA36A"/>
<stop offset="1" stop-color="#E5BE8C"/>
</linearGradient>
<linearGradient id="paint3_linear_818_70" x1="-2.26293" y1="37.5445" x2="104.957" y2="37.5445" gradientUnits="userSpaceOnUse">
<stop stop-color="#CFA36A"/>
<stop offset="0.0001" stop-color="#CFA36A"/>
<stop offset="1" stop-color="#E5BE8C"/>
</linearGradient>
</defs>
</svg>
