<svg width="56" height="80" viewBox="0 0 56 80" fill="none" xmlns="http://www.w3.org/2000/svg">
<path d="M32.8018 40.587C31.1933 46.1155 28.3976 50.9095 24.4146 54.9689C20.4317 58.9896 15.8552 61 10.685 61C7.12333 61 4.44251 59.7822 2.64253 57.3465C0.880842 54.9109 0 51.76 0 47.8939C0 42.868 1.35956 37.8807 4.07868 32.9321C7.02759 27.5969 10.7424 23.8661 15.2232 21.7397C17.7126 20.5799 20.3168 20 23.0359 20C26.6742 20 29.3933 21.1985 31.1933 23.5955C33.0316 25.9538 33.9507 29.0273 33.9507 32.8161C33.9507 35.3291 33.5677 37.9194 32.8018 40.587ZM13.6147 58.2164C16.219 58.2164 18.7083 56.8246 21.0828 54.041C23.4955 51.2188 25.3338 47.8553 26.5976 43.9505C27.8614 40.0071 28.4933 36.4309 28.4933 33.2221C28.4933 30.0132 27.8614 27.4229 26.5976 25.4512C25.3338 23.4795 23.4189 22.4936 20.853 22.4936C18.287 22.4936 15.8169 23.8274 13.4424 26.4951C11.1063 29.1627 9.28714 32.4102 7.98502 36.2376C6.68291 40.0651 6.03185 43.7185 6.03185 47.198C6.03185 50.6775 6.64461 53.3838 7.87013 55.3168C9.09565 57.2499 11.0105 58.2164 13.6147 58.2164Z" fill="url(#paint0_linear_819_88)"/>
<path d="M55.4331 34.6657C54.652 35.8358 53.5812 36.9422 52.2206 37.985L39.6732 60.3041C39.6228 60.4313 39.2575 60.4949 38.5772 60.4949C37.8969 60.4949 37.5568 60.444 37.5568 60.3423V60.3041L49.953 38.3665C49.6003 38.4683 49.2476 38.5191 48.8948 38.5191C47.8618 38.5191 47.0303 38.2012 46.4004 37.5653C46.4256 37.7688 46.4382 38.0995 46.4382 38.5573C46.4382 40.3632 45.8713 42.0927 44.7375 43.746C43.6289 45.3738 42.1676 46.1877 40.3535 46.1877C39.1945 46.1877 38.3252 45.7935 37.7457 45.005C37.1662 44.1911 36.8765 43.161 36.8765 41.9147C36.8765 40.0579 37.4434 38.3411 38.5772 36.7641C39.711 35.1617 41.1597 34.3605 42.9234 34.3605C44.0572 34.3605 44.9643 34.7929 45.6446 35.6577C46.3501 36.5225 47.1185 36.9549 47.95 36.9549C48.8066 36.9549 49.6633 36.6878 50.5199 36.1537C51.3766 35.5941 52.0317 34.9328 52.4852 34.1698C52.7372 33.7374 53.3167 33.5212 54.2237 33.5212C55.1308 33.5212 55.5843 33.7755 55.5843 34.2842C55.5843 34.3351 55.5339 34.4623 55.4331 34.6657ZM55.7732 54.7339C55.3953 56.2854 54.6772 57.6334 53.619 58.778C52.586 59.9226 51.4144 60.4949 50.1042 60.4949C48.794 60.4949 47.8492 60.1006 47.2697 59.3121C46.6902 58.4982 46.4004 57.4554 46.4004 56.1837C46.4004 54.3269 46.9673 52.6101 48.1012 51.0331C49.235 49.4307 50.6837 48.6295 52.4474 48.6295C53.6568 48.6295 54.5512 49.0365 55.1307 49.8504C55.7102 50.6389 56 51.6435 56 52.8644C56 53.5003 55.9244 54.1234 55.7732 54.7339ZM41.2605 44.1657C41.8148 44.1657 42.3691 43.8477 42.9234 43.2119C43.5029 42.576 43.9439 41.813 44.2462 40.9227C44.5486 40.0071 44.6997 39.1677 44.6997 38.4047C44.6997 36.8277 44.1706 36.0392 43.1124 36.0392C42.2557 36.0392 41.4621 36.6497 40.7314 37.8705C40.0007 39.0914 39.6354 40.3886 39.6354 41.7621C39.6354 42.4997 39.774 43.0847 40.0511 43.5171C40.3283 43.9495 40.7314 44.1657 41.2605 44.1657ZM50.7089 58.4346C51.3136 58.4346 51.9057 58.1167 52.4852 57.4808C53.0647 56.845 53.493 56.0819 53.7702 55.1917C54.0725 54.3015 54.2237 53.4748 54.2237 52.7118C54.2237 51.1348 53.6946 50.3464 52.6364 50.3464C51.7797 50.3464 50.9861 50.9568 50.2554 52.1777C49.5247 53.3985 49.1594 54.7466 49.1594 56.2218C49.1594 57.697 49.6759 58.4346 50.7089 58.4346Z" fill="url(#paint1_linear_819_88)"/>
<defs>
<linearGradient id="paint0_linear_819_88" x1="-1.01379" y1="37.7924" x2="47.0207" y2="37.7924" gradientUnits="userSpaceOnUse">
<stop stop-color="#CFA36A"/>
<stop offset="0.0001" stop-color="#CFA36A"/>
<stop offset="1" stop-color="#E5BE8C"/>
</linearGradient>
<linearGradient id="paint1_linear_819_88" x1="-1.01379" y1="37.7924" x2="47.0207" y2="37.7924" gradientUnits="userSpaceOnUse">
<stop stop-color="#CFA36A"/>
<stop offset="0.0001" stop-color="#CFA36A"/>
<stop offset="1" stop-color="#E5BE8C"/>
</linearGradient>
</defs>
</svg>
