<svg width="430" height="431" viewBox="0 0 430 431" fill="none" xmlns="http://www.w3.org/2000/svg">
<path fill-rule="evenodd" clip-rule="evenodd" d="M215 45.378C206.746 27.8569 189.013 18.8852 170.224 13.7556C182.975 -4.94768 207.59 -0.472414 215 13.7556C222.41 -0.472414 247.046 -4.94768 259.776 13.7556C240.987 18.8852 223.254 27.8569 215 45.378ZM151.119 151.982C114.365 149.28 115.441 129.395 97.6873 107.272C91.6074 99.7145 82.5508 91.6928 67.2244 93.2127C38.7248 96.0625 22.8495 125.025 24.095 151.476C25.3617 177.884 46.4725 203.237 73.431 203.237H165.495C176.473 203.237 185.086 203.849 193.045 211.47C190.638 197.896 182.067 185.737 165.136 185.737H77.8431C68.0055 185.737 42.5248 177.314 42.1237 147.613C41.8281 125.975 52.658 116.497 63.9945 114.217C101.339 106.681 94.204 154.6 60.9756 138.388C61.4612 166.379 91.1429 168.131 108.58 153.544C111.283 177.462 155.573 167.35 171.533 172.417C166.466 156.479 176.578 112.169 152.66 109.467C167.247 92.0305 165.495 62.3502 137.502 61.8647C153.715 95.0915 105.794 102.205 113.33 64.8834C115.61 53.5475 125.089 42.7182 146.728 43.0137C176.431 43.4148 184.854 68.8943 184.854 78.7314V166.02C184.854 182.95 197.014 191.521 210.588 193.927C202.988 185.99 202.355 177.356 202.355 166.379V74.2983C202.355 47.3412 177.022 26.2314 150.591 24.9648C124.16 23.6983 95.1751 39.5728 92.3251 68.0921C90.7841 83.4178 98.8062 92.495 106.364 98.5535C128.53 116.307 148.417 115.23 151.119 151.982ZM44.5092 215.86C26.9872 207.606 18.0151 189.874 12.9063 171.087C-5.79785 183.816 -1.32236 208.451 12.9063 215.86C-1.32236 223.27 -5.79785 247.905 12.9063 260.634C18.0151 241.847 26.9872 224.114 44.5092 215.86ZM151.119 279.717C114.365 282.419 115.441 302.305 97.6873 324.428C91.6074 331.985 82.5508 340.007 67.2244 338.487C38.7248 335.637 22.8495 306.675 24.095 280.224C25.3617 253.816 46.4725 228.463 73.431 228.463H165.495C176.473 228.463 185.086 227.851 193.045 220.23C190.638 233.804 182.067 245.963 165.136 245.963H77.8431C68.0055 245.963 42.5248 254.386 42.1237 284.087C41.8281 305.725 52.658 315.203 63.9945 317.483C101.339 325.019 94.204 277.1 60.9756 293.312C61.4612 265.321 91.1429 263.568 108.58 278.155C111.283 254.238 155.573 264.35 171.533 259.283C166.466 275.221 176.578 319.53 152.66 322.232C167.247 339.669 165.495 369.349 137.502 369.835C153.715 336.608 105.794 329.473 113.33 366.816C115.61 378.152 125.089 388.982 146.728 388.686C176.431 388.285 184.854 362.805 184.854 352.968V265.679C184.854 248.749 197.014 240.179 210.588 237.772C202.988 245.71 202.355 254.344 202.355 265.321V357.38C202.355 384.337 177.022 405.447 150.591 406.714C124.16 407.98 95.1751 392.106 92.3251 363.586C90.7841 348.261 98.8062 339.184 106.364 333.125C128.53 315.414 148.417 316.47 151.119 279.717ZM215 386.343C206.746 403.843 189.013 412.836 170.224 417.944C182.975 436.647 207.59 432.172 215 417.944C222.41 432.172 247.046 436.647 259.776 417.944C240.987 412.836 223.254 403.864 215 386.343ZM278.881 279.717C281.583 316.47 301.47 315.393 323.594 333.146C331.152 339.226 339.174 348.282 337.633 363.608C334.783 392.106 305.819 407.98 279.367 406.735C252.957 405.468 227.603 384.359 227.603 357.401V265.342C227.603 254.365 226.991 245.731 219.37 237.793C232.944 240.2 245.104 248.771 245.104 265.701V352.989C245.104 362.827 253.527 388.306 283.23 388.707C304.869 389.003 314.347 378.173 316.627 366.837C324.164 329.494 276.242 336.629 292.456 369.856C264.463 369.371 262.71 339.69 277.298 322.254C253.379 319.552 263.492 275.263 258.425 259.304C274.364 264.371 318.675 254.238 321.356 278.176C338.794 263.59 368.475 265.342 368.961 293.333C335.733 277.121 328.618 325.04 365.942 317.504C377.279 315.224 388.109 305.725 387.813 284.108C387.412 254.407 361.931 245.984 352.094 245.984H264.8C247.87 245.984 239.299 233.825 236.892 220.251C244.83 227.851 253.464 228.484 264.441 228.484H356.506C383.464 228.484 404.596 253.816 405.842 280.245C407.108 306.675 391.212 335.658 362.712 338.508C347.386 340.049 338.308 332.006 332.249 324.449C314.559 302.326 315.614 282.419 278.881 279.717ZM385.491 215.86C403.013 224.114 411.985 241.847 417.094 260.634C435.798 247.905 431.322 223.27 417.094 215.86C431.322 208.451 435.798 183.816 417.094 171.087C411.985 189.874 403.013 207.606 385.491 215.86ZM278.881 151.982C315.635 149.28 314.559 129.395 332.313 107.272C338.393 99.7145 347.449 91.6928 362.776 93.2127C391.275 96.0625 407.15 125.025 405.905 151.476C404.638 177.884 383.528 203.237 356.569 203.237H264.505C253.527 203.237 244.893 203.849 236.955 211.47C239.362 197.896 247.933 185.737 264.864 185.737H352.157C361.995 185.737 387.475 177.314 387.876 147.613C388.172 125.975 377.342 116.497 366.006 114.217C328.661 106.681 335.796 154.6 369.024 138.388C368.539 166.379 338.857 168.131 321.42 153.544C318.717 177.462 274.427 167.35 258.488 172.417C263.555 156.479 253.443 112.169 277.361 109.467C262.774 92.0305 264.526 62.3502 292.519 61.8647C276.306 95.0915 324.227 102.205 316.691 64.8834C314.411 53.5475 304.932 42.7182 283.293 43.0137C253.591 43.4148 245.167 68.8943 245.167 78.7314V166.02C245.167 182.95 233.008 191.521 219.433 193.927C227.033 185.99 227.666 177.356 227.666 166.379V74.2983C227.666 47.3412 252.999 26.2314 279.43 24.9648C305.861 23.6983 334.846 39.5728 337.696 68.0921C339.237 83.4178 331.215 92.495 323.657 98.5535C301.47 116.307 281.562 115.23 278.881 151.982Z" stroke="#ffffff" stroke-miterlimit="10"/>
</svg>
