<svg width="14" height="17" viewBox="0 0 14 17" fill="none" xmlns="http://www.w3.org/2000/svg">
<path d="M7 0C3.1325 0 0 3.04376 0 6.8017C0 8.15354 0.525 9.40335 1.47875 10.6957C1.96875 11.3673 3.57875 13.3483 6.3175 16.6812C6.6675 17.1063 7.3325 17.1063 7.6825 16.6812C10.43 13.3483 12.0312 11.3588 12.5213 10.6957C13.475 9.40335 14 8.15354 14 6.8017C14 3.04376 10.8675 0 7 0ZM7 9.35234C5.5475 9.35234 4.375 8.21305 4.375 6.8017C4.375 5.39035 5.5475 4.25106 7 4.25106C8.4525 4.25106 9.625 5.39035 9.625 6.8017C9.625 8.21305 8.4525 9.35234 7 9.35234Z" fill="url(#paint0_linear)"/>
<defs>
<linearGradient id="paint0_linear" x1="12.6" y1="17" x2="2.00363" y2="16.3044" gradientUnits="userSpaceOnUse">
<stop stop-color="#CFA36A"/>
<stop offset="1" stop-color="#E5BE8C"/>
</linearGradient>
</defs>
</svg>
