<svg width="163" height="80" viewBox="0 0 163 80" fill="none" xmlns="http://www.w3.org/2000/svg">
<g clip-path="url(#clip0_818_26)">
<path d="M15.0714 25.0727L1.65761 46.0767C-1.799 51.5096 2.3283 58.4463 9.08675 58.4463H35.9142C42.6727 58.4463 46.8 51.5096 43.3434 46.0767L29.9296 25.0727C26.5246 19.7853 18.4248 19.7853 15.0714 25.0727ZM28.2787 26.0429L41.744 47.1439C43.6529 50.1514 41.3829 53.935 37.6683 53.935H10.7377C7.0231 53.935 4.75308 50.1514 6.66196 47.1439L20.1273 26.0429C21.9846 23.1324 26.4214 23.1324 28.2787 26.0429Z" fill="#DAAB6B"/>
<path d="M22.9648 30.4087L13.9879 44.4276C12.5949 46.6105 14.2458 49.3269 16.9286 49.3269H34.8308C37.5135 49.3269 39.1644 46.5619 37.7714 44.4276L28.8462 30.4087C27.5048 28.3229 24.3061 28.3229 22.9648 30.4087ZM28.7946 33.7558L34.6244 42.9238C35.1403 43.7484 34.5212 44.8157 33.4894 44.8157H21.8298C20.7979 44.8157 20.1272 43.7484 20.6948 42.9238L26.5246 33.7558C27.0405 32.9311 28.2787 32.9311 28.7946 33.7558Z" fill="#DAAB6B"/>
<path d="M64.8053 30.6997C67.4881 30.6997 69.6549 31.5729 71.409 33.3677C73.2147 35.1625 74.0917 37.3454 74.0917 39.9648C74.0917 42.5358 73.2147 44.7671 71.409 46.5619C69.6549 48.3082 67.4365 49.1813 64.7537 49.1813C62.3289 49.1813 60.3169 48.2597 58.7691 46.4163V48.7448H54.3323V24.1027H58.8207V33.4162C60.4717 31.5729 62.4321 30.6997 64.8053 30.6997ZM69.5517 39.9163C69.5517 38.4126 69.0358 37.1513 68.0556 36.1327C67.0237 35.114 65.734 34.5804 64.1346 34.5804C62.4837 34.5804 61.1939 35.114 60.2137 36.1327C59.1819 37.1513 58.7176 38.4126 58.7176 39.9163C58.7176 41.42 59.2335 42.6813 60.2137 43.7485C61.2455 44.7671 62.5353 45.2522 64.1346 45.2522C65.734 45.2522 67.0237 44.7671 68.0556 43.7485C69.0358 42.6813 69.5517 41.3715 69.5517 39.9163Z" fill="#27AE60"/>
<path d="M86.5769 49.1328C83.6878 49.1328 81.3146 48.2596 79.4573 46.5618C77.6 44.8156 76.7229 42.6327 76.7229 39.9648C76.7229 37.2968 77.6516 35.0655 79.5089 33.3677C81.4177 31.6213 83.7909 30.7968 86.7316 30.7968C88.6405 30.7968 90.3946 31.2333 91.9424 32.0579C93.4901 32.9311 94.6251 34.0953 95.399 35.599L91.736 37.4423C90.5494 35.599 88.8985 34.6774 86.7832 34.6774C85.1839 34.6774 83.8425 35.1624 82.7591 36.1811C81.6757 37.1998 81.1598 38.461 81.1598 39.9648C81.1598 41.4685 81.6757 42.7297 82.7075 43.7484C83.7393 44.767 85.0291 45.2521 86.6285 45.2521C87.6603 45.2521 88.6405 45.0096 89.5692 44.476C90.4978 43.9909 91.2201 43.3118 91.6328 42.4872L95.2958 44.476C94.4703 45.8828 93.2837 47.0469 91.736 47.8716C90.2399 48.6962 88.4857 49.1328 86.5769 49.1328Z" fill="#27AE60"/>
<path d="M107.265 49.1328C104.376 49.1328 102.003 48.2596 100.145 46.5618C98.288 44.8156 97.4109 42.6327 97.4109 39.9648C97.4109 37.2968 98.3396 35.0655 100.197 33.3677C102.106 31.6213 104.479 30.7968 107.42 30.7968C109.329 30.7968 111.083 31.2333 112.631 32.0579C114.178 32.9311 115.313 34.0953 116.087 35.599L112.424 37.4423C111.238 35.599 109.587 34.6774 107.472 34.6774C105.872 34.6774 104.531 35.1624 103.447 36.1811C102.364 37.1998 101.848 38.461 101.848 39.9648C101.848 41.4685 102.364 42.7297 103.396 43.7484C104.428 44.767 105.717 45.2521 107.317 45.2521C108.349 45.2521 109.329 45.0096 110.257 44.476C111.186 43.9909 111.908 43.3118 112.321 42.4872L115.984 44.476C115.159 45.8828 113.972 47.0469 112.424 47.8716C110.928 48.6962 109.174 49.1328 107.265 49.1328Z" fill="#27AE60"/>
<path d="M121.092 49.2297C120.318 49.2297 119.699 48.9872 119.183 48.5021C118.667 48.017 118.409 47.435 118.409 46.7074C118.409 46.0282 118.667 45.4461 119.183 44.961C119.699 44.4759 120.37 44.2334 121.092 44.2334C121.814 44.2334 122.433 44.4759 122.949 44.961C123.465 45.4461 123.723 46.0282 123.723 46.7074C123.723 47.435 123.465 48.017 122.949 48.5021C122.485 48.9872 121.866 49.2297 121.092 49.2297Z" fill="#27AE60"/>
<path d="M145.443 48.7447H139.871L133.474 41.0805L132.081 42.2447V48.7447H127.541V24.1027H132.029V37.4424L139.252 31.1363H144.978L136.517 38.4126L145.443 48.7447Z" fill="#27AE60"/>
<path d="M161.9 33.9498L152.304 45.2037H162.21V48.7448H146.165V45.8828L155.864 34.6774H146.681V31.1364H161.9V33.9498Z" fill="#27AE60"/>
</g>
<defs>
<clipPath id="clip0_818_26">
<rect width="162" height="80" fill="white" transform="translate(0.114746)"/>
</clipPath>
</defs>
</svg>
