<svg width="49" height="47" viewBox="0 0 49 47" fill="none" xmlns="http://www.w3.org/2000/svg">
<path fill-rule="evenodd" clip-rule="evenodd" d="M32.4737 1.44766H32.4897V0H25.2519L29.2569 12.5816C28.5733 12.9069 27.8736 13.6145 27.5359 14.2L23.1288 0H16.5183V1.44766H16.5344C16.7193 1.44766 17.0089 1.52085 17.2662 1.69977C17.6924 2.00069 18.0141 2.58626 17.6281 3.52968L4.64828 42.226C3.70737 45.0156 1.22239 45.5442 0.0482521 45.5523H0V47H0.0482521H28.1953C32.8275 46.0322 36.752 43.6167 34.8621 37.3951L31.782 27.2289C29.6911 20.3322 24.7614 19.3319 21.5124 20.9666C17.8372 22.8209 17.1858 28.1561 20.9012 28.3431C22.1718 28.4082 23.2093 27.294 23.2093 26.009C23.2093 25.1957 22.7991 24.4881 22.1799 24.0652C26.7075 20.3078 29.5222 28.091 23.8607 28.4814C25.0268 30.6854 24.1904 32.4746 21.7376 32.0761C23.8928 34.5485 23.547 36.7282 20.9897 36.9965C26.7638 39.9894 25.6219 44.6171 24.7935 45.9509C22.019 42.4618 15.505 40.3636 14.4756 31.58C13.8484 26.253 15.6096 18.055 23.2977 18.3803C22.4453 17.7053 21.6089 16.9164 21.7134 15.42C24.3432 17.2417 27.1981 15.7941 28.5974 19.2018C27.7128 16.9164 28.0425 14.5985 30.2139 13.3379C32.1198 14.5985 33.3663 17.5183 30.616 20.6169C32.0716 22.4143 33.1009 24.4963 33.7282 26.8386L36.9933 37.1673C38.7062 42.592 39.5667 45.9021 45.9521 46.9919H48.9517H49V45.5442H48.9517C47.7776 45.5442 45.2926 45.0074 44.3517 42.2179L31.388 3.52968C30.9939 2.58626 31.3237 2.00069 31.7499 1.69977C31.9992 1.52085 32.2887 1.44766 32.4737 1.44766Z" fill="url(#paint0_linear)"/>
<defs>
<linearGradient id="paint0_linear" x1="4.73295" y1="43.6429" x2="1.65369" y2="-6.35597" gradientUnits="userSpaceOnUse">
<stop stop-color="#BD9253"/>
<stop offset="0.472756" stop-color="#D8AE77"/>
<stop offset="1" stop-color="#E5BE8C"/>
</linearGradient>
</defs>
</svg>
