<svg width="336" height="336" viewBox="0 0 336 336" fill="none" xmlns="http://www.w3.org/2000/svg">
<path fill-rule="evenodd" clip-rule="evenodd" d="M168 34.4836C161.535 20.7608 147.646 13.734 132.931 9.71636C142.917 -4.93234 162.196 -1.42723 168 9.71636C173.804 -1.42723 193.099 -4.93234 203.069 9.71636C188.354 13.734 174.465 20.7608 168 34.4836ZM117.967 117.978C89.1808 115.862 90.0241 100.287 76.1187 82.9598C71.3568 77.0408 64.2636 70.7581 52.2597 71.9485C29.9383 74.1805 17.5045 96.8645 18.48 117.581C19.4721 138.264 36.0064 158.121 57.1208 158.121H129.227C137.825 158.121 144.571 158.601 150.804 164.569C148.919 153.938 142.206 144.415 128.946 144.415H60.5764C52.8714 144.415 32.9145 137.818 32.6004 114.555C32.3689 97.6086 40.851 90.185 49.7299 88.3994C78.9792 82.4969 73.3905 120.028 47.3655 107.33C47.7458 129.254 70.9931 130.626 84.6504 119.201C86.7668 137.934 121.456 130.014 133.956 133.982C129.988 121.499 137.908 86.7956 119.174 84.6793C130.599 71.0226 129.227 47.7765 107.302 47.3963C120.001 73.42 82.4679 78.9918 88.3707 49.7605C90.1564 40.882 97.5803 32.4003 114.528 32.6318C137.792 32.946 144.389 52.9019 144.389 60.6065V128.973C144.389 142.233 153.913 148.945 164.544 150.83C158.592 144.613 158.096 137.851 158.096 129.254V57.1345C158.096 36.0212 138.255 19.4877 117.554 18.4957C96.8528 17.5036 74.1511 29.9369 71.919 52.2736C70.712 64.277 76.995 71.3864 82.9143 76.1315C100.275 90.0362 115.851 89.193 117.967 117.978ZM34.4687 168.008C20.7452 161.544 13.7181 147.656 9.71684 132.941C-4.93258 142.91 -1.4273 162.205 9.71684 168.008C-1.4273 173.812 -4.93258 193.106 9.71684 203.076C13.7181 188.361 20.7452 174.473 34.4687 168.008ZM117.967 218.022C89.1808 220.138 90.0241 235.713 76.1187 253.04C71.3568 258.959 64.2636 265.242 52.2597 264.051C29.9383 261.819 17.5045 239.135 18.48 218.419C19.4721 197.736 36.0064 177.879 57.1208 177.879H129.227C137.825 177.879 144.571 177.399 150.804 171.431C148.919 182.062 142.206 191.585 128.946 191.585H60.5764C52.8714 191.585 32.9145 198.182 32.6004 221.445C32.3689 238.391 40.851 245.815 49.7299 247.601C78.9792 253.503 73.3905 215.972 47.3655 228.67C47.7458 206.746 70.9931 205.374 84.6504 216.799C86.7668 198.066 121.456 205.986 133.956 202.018C129.988 214.501 137.908 249.204 119.174 251.321C130.599 264.977 129.227 288.223 107.302 288.604C120.001 262.58 82.4679 256.992 88.3707 286.239C90.1564 295.118 97.5803 303.6 114.528 303.368C137.792 303.054 144.389 283.098 144.389 275.393V207.027C144.389 193.768 153.913 187.055 164.544 185.17C158.592 191.387 158.096 198.149 158.096 206.746V278.849C158.096 299.962 138.255 316.496 117.554 317.488C96.8528 318.48 74.1511 306.047 71.919 283.71C70.712 271.706 76.995 264.597 82.9143 259.852C100.275 245.98 115.851 246.807 117.967 218.022ZM168 301.533C161.535 315.239 147.646 322.283 132.931 326.284C142.917 340.932 162.196 337.427 168 326.284C173.804 337.427 193.099 340.932 203.069 326.284C188.354 322.283 174.465 315.256 168 301.533ZM218.033 218.022C220.149 246.807 235.725 245.964 253.053 259.868C258.972 264.63 265.255 271.723 264.048 283.726C261.816 306.047 239.131 318.48 218.413 317.504C197.729 316.512 177.871 299.979 177.871 278.866V206.763C177.871 198.165 177.391 191.403 171.423 185.187C182.054 187.071 191.578 193.784 191.578 207.044V275.41C191.578 283.115 198.175 303.071 221.439 303.385C238.387 303.616 245.811 295.134 247.596 286.256C253.499 257.008 215.966 262.597 228.664 288.62C206.74 288.24 205.368 264.994 216.793 251.337C198.059 249.221 205.979 214.534 202.011 202.034C214.495 206.002 249.2 198.066 251.3 216.815C264.957 205.391 288.205 206.763 288.585 228.686C262.56 215.989 256.988 253.52 286.22 247.617C295.099 245.832 303.582 238.391 303.35 221.461C303.036 198.198 283.079 191.602 275.374 191.602H207.004C193.744 191.602 187.031 182.078 185.146 171.447C191.363 177.399 198.126 177.895 206.723 177.895H278.83C299.944 177.895 316.495 197.736 317.47 218.436C318.462 239.135 306.012 261.836 283.691 264.068C271.687 265.275 264.577 258.976 259.832 253.057C245.976 235.73 246.803 220.138 218.033 218.022ZM301.531 168.008C315.255 174.473 322.282 188.361 326.283 203.076C340.933 193.106 337.427 173.812 326.283 168.008C337.427 162.205 340.933 142.91 326.283 132.941C322.282 147.656 315.255 161.544 301.531 168.008ZM218.033 117.978C246.819 115.862 245.976 100.287 259.881 82.9598C264.643 77.0408 271.736 70.7581 283.74 71.9485C306.062 74.1805 318.495 96.8645 317.52 117.581C316.528 138.264 299.994 158.121 278.879 158.121H206.773C198.175 158.121 191.413 158.601 185.196 164.569C187.081 153.938 193.794 144.415 207.054 144.415H275.424C283.129 144.415 303.085 137.818 303.4 114.555C303.631 97.6086 295.149 90.185 286.27 88.3994C257.021 82.4969 262.609 120.028 288.634 107.33C288.254 129.254 265.007 130.626 251.35 119.201C249.233 137.934 214.544 130.014 202.061 133.982C206.029 121.499 198.109 86.7956 216.842 84.6793C205.417 71.0226 206.79 47.7765 228.714 47.3963C216.016 73.42 253.549 78.9918 247.646 49.7605C245.86 40.882 238.436 32.4003 221.489 32.6318C198.225 32.946 191.628 52.9019 191.628 60.6065V128.973C191.628 142.233 182.104 148.945 171.472 150.83C177.425 144.613 177.921 137.851 177.921 129.254V57.1345C177.921 36.0212 197.762 19.4877 218.463 18.4957C239.164 17.5036 261.865 29.9369 264.098 52.2736C265.305 64.277 259.022 71.3864 253.102 76.1315C235.725 90.0362 220.133 89.193 218.033 117.978Z" fill="#004D43" fill-opacity="0.3" style="mix-blend-mode:overlay"/>
</svg>
