<svg width="431" height="431" viewBox="0 0 431 431" fill="none" xmlns="http://www.w3.org/2000/svg">
<path fill-rule="evenodd" clip-rule="evenodd" d="M215.956 44.6497C207.702 27.1286 189.969 18.157 171.18 13.0273C183.931 -5.67595 208.546 -1.20069 215.956 13.0273C223.366 -1.20069 248.003 -5.67595 260.732 13.0273C241.944 18.157 224.211 27.1286 215.956 44.6497ZM152.075 151.254C115.321 148.552 116.398 128.667 98.6437 106.544C92.5637 98.9862 83.5072 90.9645 68.1808 92.4844C39.6812 95.3342 23.8059 124.297 25.0514 150.747C26.3181 177.156 47.4288 202.508 74.3873 202.508H166.452C177.429 202.508 186.042 203.121 194.001 210.741C191.594 197.168 183.024 185.009 166.093 185.009H78.7995C68.9619 185.009 43.4811 176.586 43.08 146.884C42.7845 125.247 53.6143 115.768 64.9508 113.489C102.296 105.952 95.1604 153.872 61.932 137.659C62.4175 165.651 92.0993 167.403 109.537 152.816C112.239 176.733 156.529 166.622 172.489 171.688C167.423 155.75 177.535 111.441 153.616 108.739C168.204 91.3023 166.452 61.622 138.459 61.1364C154.672 94.3632 106.75 101.477 114.287 64.1551C116.567 52.8192 126.045 41.9899 147.684 42.2854C177.387 42.6865 185.81 68.166 185.81 78.0031V165.292C185.81 182.222 197.97 190.793 211.544 193.199C203.944 185.262 203.311 176.628 203.311 165.651V73.5701C203.311 46.6129 177.978 25.5032 151.547 24.2366C125.117 22.97 96.1315 38.8445 93.2815 67.3638C91.7404 82.6895 99.7625 91.7667 107.32 97.8252C129.487 115.579 149.373 114.502 152.075 151.254ZM45.4655 215.132C27.9436 206.878 18.9715 189.146 13.8627 170.358C-4.84149 183.088 -0.365997 207.723 13.8627 215.132C-0.365997 222.542 -4.84149 247.177 13.8627 259.906C18.9715 241.118 27.9436 223.386 45.4655 215.132ZM152.075 278.989C115.321 281.691 116.398 301.577 98.6437 323.7C92.5637 331.257 83.5072 339.279 68.1808 337.759C39.6812 334.909 23.8059 305.946 25.0514 279.496C26.3181 253.087 47.4288 227.735 74.3873 227.735H166.452C177.429 227.735 186.042 227.122 194.001 219.502C191.594 233.075 183.024 245.235 166.093 245.235H78.7995C68.9619 245.235 43.4811 253.657 43.08 283.359C42.7845 304.996 53.6143 314.475 64.9508 316.755C102.296 324.291 95.1604 276.372 61.932 292.584C62.4175 264.592 92.0993 262.84 109.537 277.427C112.239 253.51 156.529 263.621 172.489 258.555C167.423 274.493 177.535 318.802 153.616 321.504C168.204 338.941 166.452 368.621 138.459 369.107C154.672 335.88 106.75 328.745 114.287 366.088C116.567 377.424 126.045 388.253 147.684 387.958C177.387 387.557 185.81 362.077 185.81 352.24V264.951C185.81 248.021 197.97 239.451 211.544 237.044C203.944 244.981 203.311 253.615 203.311 264.592V356.652C203.311 383.609 177.978 404.719 151.547 405.985C125.117 407.252 96.1315 391.377 93.2815 362.858C91.7404 347.533 99.7625 338.455 107.32 332.397C129.487 314.686 149.373 315.741 152.075 278.989ZM215.956 385.615C207.702 403.115 189.969 412.107 171.18 417.216C183.931 435.919 208.546 431.444 215.956 417.216C223.366 431.444 248.003 435.919 260.732 417.216C241.944 412.107 224.211 403.136 215.956 385.615ZM279.838 278.989C282.54 315.741 302.426 314.665 324.55 332.418C332.108 338.498 340.13 347.554 338.589 362.879C335.739 391.378 306.775 407.252 280.323 406.007C253.914 404.74 228.56 383.63 228.56 356.673V264.613C228.56 253.636 227.947 245.002 220.326 237.065C233.901 239.472 246.06 248.042 246.06 264.972V352.261C246.06 362.098 254.484 387.578 284.186 387.979C305.825 388.274 315.304 377.445 317.584 366.109C325.12 328.766 277.199 335.901 293.412 369.128C265.419 368.642 263.667 338.962 278.254 321.525C254.336 318.823 264.448 274.535 259.381 258.576C275.32 263.642 319.632 253.51 322.313 277.448C339.75 262.861 369.432 264.613 369.917 292.605C336.689 276.393 329.575 324.312 366.899 316.776C378.235 314.496 389.065 304.996 388.769 283.38C388.368 253.679 362.888 245.256 353.05 245.256H265.757C248.826 245.256 240.255 233.097 237.848 219.523C245.786 227.122 254.42 227.756 265.398 227.756H357.462C384.421 227.756 405.552 253.087 406.798 279.517C408.065 305.946 392.168 334.93 363.669 337.78C348.342 339.321 339.265 331.278 333.206 323.721C315.515 301.598 316.57 281.691 279.838 278.989ZM386.447 215.132C403.969 223.386 412.941 241.118 418.05 259.906C436.754 247.177 432.279 222.542 418.05 215.132C432.279 207.723 436.754 183.088 418.05 170.358C412.941 189.146 403.969 206.878 386.447 215.132ZM279.838 151.254C316.592 148.552 315.515 128.667 333.269 106.544C339.349 98.9862 348.406 90.9645 363.732 92.4844C392.232 95.3342 408.107 124.297 406.861 150.747C405.595 177.156 384.484 202.508 357.525 202.508H265.461C254.484 202.508 245.849 203.121 237.912 210.741C240.318 197.168 248.889 185.009 265.82 185.009H353.113C362.951 185.009 388.432 176.586 388.833 146.884C389.128 125.247 378.298 115.768 366.962 113.489C329.617 105.952 336.752 153.872 369.981 137.659C369.495 165.651 339.813 167.403 322.376 152.816C319.674 176.733 275.383 166.622 259.445 171.688C264.511 155.75 254.399 111.441 278.318 108.739C263.73 91.3023 265.482 61.622 293.475 61.1364C277.262 94.3632 325.184 101.477 317.647 64.1551C315.367 52.8192 305.888 41.9899 284.25 42.2854C254.547 42.6865 246.124 68.166 246.124 78.0031V165.292C246.124 182.222 233.964 190.793 220.39 193.199C227.99 185.262 228.623 176.628 228.623 165.651V73.5701C228.623 46.6129 253.956 25.5032 280.387 24.2366C306.817 22.97 335.802 38.8445 338.652 67.3638C340.193 82.6895 332.171 91.7667 324.614 97.8252C302.426 115.579 282.519 114.502 279.838 151.254Z" stroke="#F3D9B7" stroke-miterlimit="10"/>
</svg>
