<svg width="653" height="654" viewBox="0 0 653 654" fill="none" xmlns="http://www.w3.org/2000/svg">
<path fill-rule="evenodd" clip-rule="evenodd" d="M326.5 67.5676C313.936 40.8979 286.943 27.2418 258.344 19.4337C277.753 -9.03535 315.221 -2.22334 326.5 19.4337C337.779 -2.22334 375.279 -9.03535 394.656 19.4337C366.057 27.2418 339.064 40.8979 326.5 67.5676ZM229.263 229.835C173.319 225.722 174.958 195.453 147.933 161.779C138.679 150.276 124.893 138.065 101.564 140.379C58.1837 144.717 34.0192 188.802 35.9151 229.064C37.8431 269.261 69.9768 307.851 111.011 307.851H251.147C267.856 307.851 280.967 308.783 293.081 320.383C289.418 299.722 276.371 281.214 250.6 281.214H117.727C102.753 281.214 63.9678 268.393 63.3572 223.183C62.9074 190.248 79.3919 175.821 96.6477 172.35C153.492 160.879 142.631 233.819 92.0526 209.142C92.7917 251.749 137.972 254.416 164.514 232.212C168.627 268.618 236.044 253.227 260.337 260.939C252.625 236.679 268.017 169.234 231.609 165.121C253.814 138.58 251.146 93.4018 208.537 92.6628C233.216 143.239 160.272 154.067 171.744 97.2577C175.215 80.0027 189.643 63.5189 222.58 63.9688C267.792 64.5793 280.613 103.363 280.613 118.336V251.203C280.613 276.973 299.122 290.018 319.784 293.681C308.216 281.6 307.252 268.458 307.252 251.749V111.589C307.252 70.5559 268.691 38.4238 228.46 36.4958C188.229 34.5679 144.109 58.7313 139.771 102.142C137.425 125.47 149.636 139.286 161.14 148.508C194.88 175.531 225.15 173.893 229.263 229.835ZM66.9883 327.066C40.3174 314.503 26.6606 287.512 18.8842 258.914C-9.58623 278.29 -2.77389 315.788 18.8842 327.066C-2.77389 338.345 -9.58623 375.843 18.8842 395.219C26.6606 366.621 40.3174 339.63 66.9883 327.066ZM229.263 424.266C173.319 428.379 174.958 458.647 147.933 492.322C138.679 503.825 124.893 516.035 101.564 513.722C58.1837 509.384 34.0192 465.299 35.9151 425.037C37.8431 384.84 69.9768 346.249 111.011 346.249H251.147C267.856 346.249 280.967 345.318 293.081 333.718C289.418 354.379 276.371 372.887 250.6 372.887H117.727C102.753 372.887 63.9678 385.708 63.3572 430.917C62.9074 463.853 79.3919 478.28 96.6477 481.75C153.492 493.222 142.631 420.282 92.0526 444.959C92.7917 402.352 137.972 399.685 164.514 421.888C168.627 385.483 236.044 400.874 260.337 393.162C252.625 417.422 268.017 484.867 231.609 488.98C253.814 515.521 251.146 560.699 208.537 561.438C233.216 510.862 160.272 500.001 171.744 556.843C175.215 574.098 189.643 590.582 222.58 590.132C267.792 589.521 280.613 550.738 280.613 535.764V402.898C280.613 377.128 299.122 364.083 319.784 360.42C308.216 372.501 307.252 385.643 307.252 402.352V542.48C307.252 583.513 268.691 615.645 228.46 617.573C188.229 619.501 144.109 595.337 139.771 551.927C137.425 528.599 149.636 514.782 161.14 505.56C194.88 478.601 225.15 480.208 229.263 424.266ZM326.5 586.565C313.936 613.203 286.943 626.891 258.344 634.667C277.753 663.136 315.221 656.324 326.5 634.667C337.779 656.324 375.279 663.136 394.656 634.667C366.057 626.891 339.064 613.235 326.5 586.565ZM423.737 424.266C427.85 480.208 458.12 478.569 491.796 505.592C503.3 514.846 515.51 528.631 513.165 551.959C508.827 595.337 464.739 619.501 424.476 617.605C384.276 615.677 345.684 583.545 345.684 542.512V402.384C345.684 385.675 344.752 372.533 333.152 360.452C353.814 364.115 372.323 377.16 372.323 402.93V535.797C372.323 550.77 385.144 589.554 430.356 590.164C463.293 590.614 477.721 574.13 481.192 556.875C492.663 500.034 419.72 510.894 444.398 561.47C401.789 560.731 399.122 515.553 421.326 489.012C384.919 484.899 400.311 417.486 392.599 393.194C416.86 400.906 484.309 385.483 488.39 421.92C514.932 399.717 560.112 402.384 560.851 444.991C510.273 420.314 499.443 493.254 556.256 481.783C573.512 478.312 589.996 463.853 589.546 430.95C588.936 385.74 550.15 372.919 535.176 372.919H402.303C376.532 372.919 363.486 354.411 359.823 333.75C371.905 345.318 385.048 346.281 401.757 346.281H541.892C582.927 346.281 615.093 384.84 616.989 425.069C618.917 465.299 594.72 509.416 551.339 513.754C528.01 516.1 514.193 503.857 504.97 492.354C478.042 458.68 479.649 428.379 423.737 424.266ZM586.012 327.066C612.683 339.63 626.339 366.621 634.116 395.219C662.586 375.843 655.774 338.345 634.116 327.066C655.774 315.788 662.586 278.29 634.116 258.914C626.339 287.512 612.683 314.503 586.012 327.066ZM423.737 229.835C479.681 225.722 478.042 195.453 505.067 161.779C514.321 150.276 528.107 138.065 551.436 140.379C594.816 144.717 618.981 188.802 617.085 229.064C615.157 269.261 583.023 307.851 541.988 307.851H401.853C385.144 307.851 372.001 308.783 359.919 320.383C363.582 299.722 376.629 281.214 402.4 281.214H535.273C550.247 281.214 589.032 268.393 589.643 223.183C590.093 190.248 573.608 175.821 556.352 172.35C499.508 160.879 510.369 233.819 560.947 209.142C560.208 251.749 515.028 254.416 488.486 232.212C484.373 268.618 416.956 253.227 392.695 260.939C400.407 236.679 385.015 169.234 421.423 165.121C399.219 138.58 401.886 93.4018 444.495 92.6628C419.816 143.239 492.76 154.067 481.288 97.2577C477.818 80.0027 463.39 63.5189 430.452 63.9688C385.24 64.5793 372.419 103.363 372.419 118.336V251.203C372.419 276.973 353.91 290.018 333.248 293.681C344.816 281.6 345.78 268.458 345.78 251.749V111.589C345.78 70.5559 384.341 38.4238 424.572 36.4958C464.803 34.5679 508.923 58.7313 513.261 102.142C515.607 125.47 503.396 139.286 491.892 148.508C458.12 175.531 427.818 173.893 423.737 229.835Z" fill="#004D43" fill-opacity="0.3" style="mix-blend-mode:overlay"/>
</svg>
