<svg width="268" height="268" viewBox="0 0 268 268" fill="none" xmlns="http://www.w3.org/2000/svg">
<path fill-rule="evenodd" clip-rule="evenodd" d="M134.115 27.7925C128.978 16.8878 117.941 11.304 106.247 8.11142C114.183 -3.52906 129.503 -0.743758 134.115 8.11142C138.727 -0.743758 154.06 -3.52906 161.982 8.11142C150.289 11.304 139.252 16.8878 134.115 27.7925ZM94.3565 94.1406C71.4817 92.4589 72.1518 80.0827 61.102 66.3138C57.318 61.6103 51.6814 56.6178 42.1426 57.5638C24.4051 59.3374 14.5246 77.3631 15.2998 93.8253C16.0882 110.261 29.2271 126.04 46.0054 126.04H103.304C110.136 126.04 115.497 126.421 120.45 131.164C118.953 122.716 113.618 115.149 103.081 115.149H48.7514C42.6287 115.149 26.7701 109.907 26.5204 91.421C26.3365 77.9543 33.0768 72.0552 40.1323 70.6363C63.375 65.946 58.9341 95.7698 38.2535 85.6796C38.5557 103.101 57.0289 104.191 67.8817 95.1129C69.5634 109.998 97.1288 103.705 107.062 106.858C103.909 96.9391 110.202 69.3619 95.3157 67.6802C104.395 56.828 103.304 38.3557 85.882 38.0535C95.9726 58.7331 66.1473 63.1607 70.8379 39.9322C72.2569 32.877 78.1563 26.1371 91.6236 26.321C110.11 26.5706 115.352 42.4285 115.352 48.5509V102.878C115.352 113.414 122.92 118.749 131.369 120.246C126.639 115.306 126.245 109.933 126.245 103.101V45.7919C126.245 29.0144 110.478 15.8761 94.0281 15.0878C77.5782 14.2995 59.5385 24.1795 57.7647 41.9293C56.8056 51.4676 61.7984 57.1171 66.5021 60.8877C80.2979 71.937 92.6748 71.267 94.3565 94.1406ZM28.0051 133.897C17.0999 128.76 11.5158 117.724 8.33622 106.031C-3.30483 113.953 -0.519387 129.285 8.33622 133.897C-0.519387 138.508 -3.30483 153.841 8.33622 161.763C11.5158 150.07 17.0999 139.034 28.0051 133.897ZM94.3565 173.64C71.4817 175.322 72.1518 187.698 61.102 201.467C57.318 206.17 51.6814 211.163 42.1426 210.217C24.4051 208.443 14.5246 190.418 15.2998 173.955C16.0882 157.52 29.2271 141.74 46.0054 141.74H103.304C110.136 141.74 115.497 141.359 120.45 136.617C118.953 145.064 113.618 152.632 103.081 152.632H48.7514C42.6287 152.632 26.7701 157.874 26.5204 176.36C26.3365 189.826 33.0768 195.726 40.1323 197.144C63.375 201.835 58.9341 172.011 38.2535 182.101C38.5557 164.68 57.0289 163.589 67.8817 172.668C69.5634 157.782 97.1288 164.076 107.062 160.922C103.909 170.842 110.202 198.419 95.3157 200.101C104.395 210.953 103.304 229.425 85.882 229.727C95.9726 209.048 66.1473 204.607 70.8379 227.849C72.2569 234.904 78.1563 241.644 91.6236 241.46C110.11 241.21 115.352 225.352 115.352 219.23V164.903C115.352 154.366 122.92 149.032 131.369 147.534C126.639 152.474 126.245 157.848 126.245 164.68V221.976C126.245 238.753 110.478 251.892 94.0281 252.68C77.5782 253.468 59.5385 243.588 57.7647 225.838C56.8056 216.3 61.7984 210.651 66.5021 206.88C80.2979 195.857 92.6748 196.514 94.3565 173.64ZM134.115 240.001C128.978 250.893 117.941 256.49 106.247 259.669C114.183 271.31 129.503 268.525 134.115 259.669C138.727 268.525 154.06 271.31 161.982 259.669C150.289 256.49 139.252 250.906 134.115 240.001ZM173.873 173.64C175.555 196.514 187.932 195.844 201.701 206.893C206.405 210.677 211.398 216.313 210.439 225.852C208.665 243.588 190.638 253.468 174.175 252.693C157.739 251.905 141.959 238.766 141.959 221.989V164.693C141.959 157.861 141.578 152.488 136.835 147.548C145.283 149.045 152.851 154.379 152.851 164.916V219.243C152.851 225.365 158.093 241.223 176.58 241.473C190.047 241.657 195.946 234.917 197.365 227.862C202.056 204.62 172.231 209.061 182.321 229.74C164.899 229.438 163.809 210.966 172.888 200.114C158.001 198.432 164.295 170.868 161.142 160.935C171.061 164.089 198.64 157.782 200.309 172.681C211.161 163.603 229.635 164.693 229.937 182.114C209.256 172.024 204.828 201.848 228.058 197.158C235.113 195.739 241.854 189.826 241.67 176.373C241.42 157.887 225.561 152.645 219.439 152.645H165.109C154.572 152.645 149.238 145.078 147.74 136.63C152.68 141.359 158.054 141.754 164.886 141.754H222.185C238.963 141.754 252.115 157.52 252.89 173.969C253.679 190.418 243.785 208.456 226.048 210.23C216.509 211.189 210.859 206.184 207.088 201.48C196.078 187.711 196.735 175.322 173.873 173.64ZM240.224 133.897C251.13 139.034 256.714 150.07 259.893 161.763C271.534 153.841 268.749 138.508 259.893 133.897C268.749 129.285 271.534 113.953 259.893 106.031C256.714 117.724 251.13 128.76 240.224 133.897ZM173.873 94.1406C196.748 92.4589 196.078 80.0827 207.128 66.3138C210.912 61.6103 216.548 56.6178 226.087 57.5638C243.825 59.3374 253.705 77.3631 252.93 93.8253C252.141 110.261 239.003 126.04 222.224 126.04H164.926C158.093 126.04 152.719 126.421 147.779 131.164C149.277 122.716 154.611 115.149 165.149 115.149H219.478C225.601 115.149 241.46 109.907 241.709 91.421C241.893 77.9543 235.153 72.0552 228.097 70.6363C204.855 65.946 209.296 95.7698 229.976 85.6796C229.674 103.101 211.201 104.191 200.348 95.1129C198.666 109.998 171.101 103.705 161.181 106.858C164.334 96.9391 158.041 69.3619 172.927 67.6802C163.848 56.828 164.939 38.3557 182.361 38.0535C172.27 58.7331 202.095 63.1607 197.405 39.9322C195.986 32.877 190.086 26.1371 176.619 26.321C158.133 26.5706 152.89 42.4285 152.89 48.5509V102.878C152.89 113.414 145.322 118.749 136.874 120.246C141.604 115.306 141.998 109.933 141.998 103.101V45.7919C141.998 29.0144 157.765 15.8761 174.215 15.0878C190.665 14.2995 208.704 24.1795 210.478 41.9293C211.437 51.4676 206.444 57.1171 201.741 60.8877C187.932 71.937 175.542 71.267 173.873 94.1406Z" fill="#004D43" fill-opacity="0.3" style="mix-blend-mode:overlay"/>
</svg>
